Coordinates
version=1
nRows=34
nColumns=38
inDegrees=no

Units are S.I. units (second, meters, Newtons, ...)
If the header above contains a line with 'inDegrees', this indicates whether rotational values are in degrees (yes) or radians (no).

endheader
time	pelvis_tilt	pelvis_list	pelvis_rotation	pelvis_tx	pelvis_ty	pelvis_tz	hip_flexion_r	hip_adduction_r	hip_rotation_r	knee_angle_r	ankle_angle_r	subtalar_angle_r	mtp_angle_r	hip_flexion_l	hip_adduction_l	hip_rotation_l	knee_angle_l	ankle_angle_l	subtalar_angle_l	mtp_angle_l	lumbar_extension	lumbar_bending	lumbar_rotation	arm_flex_r	arm_add_r	arm_rot_r	elbow_flex_r	pro_sup_r	wrist_flex_r	wrist_dev_r	arm_flex_l	arm_add_l	arm_rot_l	elbow_flex_l	pro_sup_l	wrist_flex_l	wrist_dev_l
2.05	-0.190946	1.14542	-1.37568	0.629919	-0.258135	0.953516	-0.463906	0.13549	-0.15241	0.221508	-0.204481	0	0	0.0870459	-0.204272	-0.168954	1.03187	-0.166663	0	0	-0.406282	0.136082	0.294967	-0.112329	-0.970819	0.0538082	1.63493	0.254214	0	0	0.679679	-0.458103	0.808907	1.04622	0.631667	0	0
2.06	-0.192165	1.15224	-1.37118	0.630328	-0.26738	0.95247	-0.469583	0.136255	-0.152649	0.218341	-0.198076	0	0	0.0932436	-0.195563	-0.164892	0.962118	-0.171084	0	0	-0.399306	0.136336	0.291157	-0.110626	-0.968283	0.0542206	1.63399	0.258616	0	0	0.678294	-0.458416	0.80706	1.04584	0.633916	0	0
2.07	-0.193477	1.15946	-1.36577	0.630849	-0.276696	0.951302	-0.475034	0.137182	-0.153708	0.214931	-0.191932	0	0	0.0967952	-0.186188	-0.160503	0.888626	-0.174747	0	0	-0.391742	0.136643	0.286356	-0.108753	-0.965016	0.0549158	1.63252	0.264409	0	0	0.676681	-0.45902	0.805342	1.04542	0.636907	0	0
2.08	-0.195708	1.16746	-1.35896	0.631443	-0.286061	0.949976	-0.47968	0.138498	-0.154753	0.211482	-0.185936	0	0	0.0983797	-0.176525	-0.155305	0.811709	-0.175036	0	0	-0.38328	0.13716	0.28107	-0.106988	-0.96115	0.0552324	1.63027	0.270854	0	0	0.674787	-0.459779	0.803356	1.04542	0.639516	0	0
2.09	-0.194412	1.17016	-1.355	0.632008	-0.295166	0.948674	-0.490464	0.139877	-0.157002	0.207495	-0.176651	0	0	0.0907515	-0.166689	-0.149845	0.729411	-0.175862	0	0	-0.391888	0.127757	0.245459	-0.0404649	-0.953734	0.114117	1.61828	0.282708	0	0	0.630601	-0.447944	0.668326	1.0346	0.853012	0	0
2.1	-0.204288	1.18608	-1.34044	0.632818	-0.305136	0.94683	-0.485708	0.142204	-0.155805	0.205946	-0.169818	0	0	0.0953816	-0.157332	-0.14096	0.643529	-0.177066	0	0	-0.363018	0.139727	0.262516	-0.0876465	-0.951393	0.0718797	1.62184	0.286406	0	0	0.658058	-0.466367	0.779535	1.05378	0.655104	0	0
2.11	-0.210725	1.19434	-1.32849	0.633672	-0.314801	0.945069	-0.489717	0.145194	-0.156751	0.203238	-0.165193	0	0	0.0887338	-0.148809	-0.132112	0.553558	-0.179691	0	0	-0.352907	0.141368	0.259112	-0.0930517	-0.947173	0.0659368	1.62022	0.291117	0	0	0.659812	-0.465067	0.784214	1.05143	0.652312	0	0
2.12	-0.218722	1.20249	-1.31469	0.634623	-0.324665	0.943214	-0.493658	0.148673	-0.158061	0.200953	-0.159981	0	0	0.080043	-0.141195	-0.122793	0.463174	-0.187523	0	0	-0.342318	0.143637	0.254099	-0.0961976	-0.942274	0.0624718	1.61829	0.2957	0	0	0.659045	-0.464496	0.785241	1.05017	0.652204	0	0
2.13	-0.22731	1.20946	-1.30078	0.635648	-0.334618	0.941388	-0.49837	0.151951	-0.158897	0.199692	-0.155413	0	0	0.0690338	-0.134345	-0.114112	0.37619	-0.19782	0	0	-0.332937	0.146333	0.248791	-0.0977349	-0.938222	0.060757	1.6163	0.300543	0	0	0.657295	-0.464356	0.784752	1.04933	0.653245	0	0
2.14	-0.235145	1.21522	-1.2881	0.636707	-0.344686	0.939698	-0.50406	0.154693	-0.159342	0.199111	-0.151681	0	0	0.0563232	-0.12765	-0.107068	0.29496	-0.209019	0	0	-0.324759	0.148856	0.243393	-0.0983035	-0.933606	0.0596633	1.61418	0.303279	0	0	0.654815	-0.464299	0.783133	1.04853	0.653577	0	0
2.15	-0.240503	1.21918	-1.2788	0.63776	-0.354883	0.93821	-0.511295	0.156357	-0.159272	0.200064	-0.148436	0	0	0.041462	-0.120885	-0.103408	0.220389	-0.221297	0	0	-0.31845	0.150609	0.238513	-0.0980912	-0.929096	0.0595376	1.61185	0.306107	0	0	0.652146	-0.464365	0.781128	1.04776	0.653147	0	0
2.16	-0.257087	1.2242	-1.25835	0.638498	-0.365111	0.936291	-0.515	0.162259	-0.153824	0.203407	-0.144352	0	0	0.0319792	-0.120246	-0.0988243	0.159879	-0.232459	0	0	-0.309682	0.155122	0.234015	-0.0978932	-0.924329	0.0597758	1.60934	0.309601	0	0	0.649968	-0.465692	0.780466	1.04823	0.654374	0	0
2.17	-0.275357	1.22784	-1.23707	0.63934	-0.375597	0.934308	-0.519082	0.168077	-0.14811	0.208586	-0.14086	0	0	0.0239445	-0.122738	-0.0980334	0.11616	-0.240784	0	0	-0.301601	0.160444	0.230597	-0.0991159	-0.920785	0.0594305	1.60764	0.312881	0	0	0.647683	-0.466913	0.780379	1.04881	0.656102	0	0
2.18	-0.281975	1.22918	-1.22892	0.640509	-0.386249	0.93272	-0.523599	0.168441	-0.145536	0.216981	-0.138222	0	0	0.0154392	-0.122767	-0.10309	0.0926316	-0.249325	0	0	-0.297429	0.162656	0.228323	-0.100984	-0.918148	0.058536	1.6065	0.31673	0	0	0.645251	-0.467423	0.779852	1.04898	0.65687	0	0
2.19	-0.259618	1.22836	-1.25229	0.642601	-0.396937	0.932239	-0.523599	0.155415	-0.148971	0.228521	-0.137551	0	0	0.00350363	-0.111091	-0.116092	0.0898902	-0.257153	0	0	-0.299605	0.156777	0.227273	-0.101979	-0.917127	0.0582751	1.60493	0.319562	0	0	0.641478	-0.466172	0.777439	1.04795	0.656618	0	0
2.2	-0.25031	1.22493	-1.26292	0.643725	-0.407339	0.93123	-0.523599	0.148908	-0.151326	0.248354	-0.133046	0	0	-0.00365165	-0.107881	-0.12531	0.111163	-0.269665	0	0	-0.30389	0.153817	0.227924	-0.103323	-0.914469	0.0560379	1.6049	0.321976	0	0	0.640543	-0.467183	0.77569	1.04999	0.656955	0	0
2.21	-0.242696	1.22283	-1.27194	0.644842	-0.417931	0.930231	-0.523599	0.143001	-0.150638	0.266544	-0.12886	0	0	-0.00726773	-0.104346	-0.129182	0.144558	-0.267011	0	0	-0.307021	0.150991	0.229239	-0.107091	-0.911807	0.0517111	1.60576	0.321539	0	0	0.639383	-0.46829	0.774592	1.05286	0.656518	0	0
2.22	-0.229143	1.21757	-1.28714	0.64589	-0.4286	0.929379	-0.523599	0.136221	-0.14838	0.282028	-0.129321	0	0	-0.0170885	-0.0985917	-0.132087	0.169265	-0.265454	0	0	-0.321071	0.135752	0.222852	-0.0967766	-0.90676	0.0599757	1.6024	0.322232	0	0	0.637605	-0.450523	0.738649	1.03556	0.679668	0	0
2.23	-0.213778	1.21295	-1.30538	0.647312	-0.439095	0.92902	-0.523599	0.126128	-0.148218	0.308368	-0.128361	0	0	-0.0266415	-0.0903542	-0.138641	0.187858	-0.264954	0	0	-0.332474	0.131948	0.205708	-0.0581534	-0.908068	0.0979886	1.59811	0.322209	0	0	0.600405	-0.457806	0.648208	1.04053	0.911897	0	0
2.24	-0.198732	1.21208	-1.32126	0.648638	-0.449877	0.928622	-0.523599	0.116964	-0.14549	0.331349	-0.131903	0	0	-0.0337801	-0.081689	-0.141309	0.193133	-0.277894	0	0	-0.335011	0.125176	0.204802	-0.0594922	-0.904689	0.0979469	1.59641	0.322533	0	0	0.600437	-0.461123	0.649888	1.04068	0.92468	0	0
2.25	-0.184785	1.21222	-1.33502	0.649932	-0.46074	0.928422	-0.523599	0.108344	-0.142787	0.356814	-0.139367	0	0	-0.0396688	-0.0740306	-0.145405	0.195412	-0.302532	0	0	-0.335899	0.118633	0.203539	-0.0617751	-0.900169	0.0972731	1.59375	0.324822	0	0	0.600097	-0.46311	0.650929	1.03949	0.939567	0	0
2.26	-0.174543	1.21266	-1.34488	0.651353	-0.471656	0.928356	-0.523599	0.100317	-0.139332	0.384987	-0.149382	0	0	-0.044179	-0.0680888	-0.152084	0.200249	-0.327052	0	0	-0.335764	0.114339	0.203437	-0.0657991	-0.898901	0.0966615	1.59173	0.326085	0	0	0.59751	-0.460382	0.648245	1.03767	0.939178	0	0
2.27	-0.166351	1.21161	-1.35253	0.65297	-0.482518	0.92848	-0.523599	0.0920881	-0.137012	0.417232	-0.164324	0	0	-0.0492434	-0.0638906	-0.159338	0.20919	-0.34732	0	0	-0.337129	0.110945	0.202698	-0.0682211	-0.894601	0.0957074	1.58833	0.329304	0	0	0.596711	-0.459148	0.648812	1.03517	0.939875	0	0
2.28	-0.158961	1.20872	-1.35898	0.654725	-0.493301	0.92892	-0.523599	0.0832252	-0.136136	0.452976	-0.186728	0	0	-0.0554417	-0.0614276	-0.164494	0.222868	-0.362563	0	0	-0.340801	0.107922	0.201336	-0.0693119	-0.892663	0.0969279	1.58517	0.33226	0	0	0.598317	-0.460147	0.653077	1.03145	0.952389	0	0
2.29	-0.161907	1.20492	-1.3572	0.656536	-0.503783	0.930194	-0.523599	0.0763669	-0.128288	0.490934	-0.222764	0	0	-0.0617377	-0.0638796	-0.168173	0.24023	-0.373254	0	0	-0.33756	0.12258	0.217167	-0.0970767	-0.898257	0.0745139	1.5923	0.331139	0	0	0.590991	-0.462522	0.692133	1.06249	0.747078	0	0
2.3	-0.15306	1.19687	-1.36479	0.658381	-0.514305	0.931559	-0.523599	0.0650961	-0.129581	0.534173	-0.253477	0	0	-0.0742007	-0.0631683	-0.168737	0.258696	-0.371773	0	0	-0.3459	0.119997	0.219358	-0.102933	-0.897671	0.0710175	1.58953	0.332726	0	0	0.605113	-0.464911	0.723773	1.05629	0.710711	0	0
2.31	-0.142894	1.18716	-1.37392	0.660202	-0.524578	0.933288	-0.523599	0.0523423	-0.13142	0.580984	-0.294026	0	0	-0.0895359	-0.0618609	-0.169258	0.27585	-0.363053	0	0	-0.356635	0.11696	0.222264	-0.108791	-0.897504	0.0671422	1.58706	0.336799	0	0	0.616294	-0.46287	0.744745	1.04835	0.690965	0	0
2.32	-0.131437	1.17659	-1.38464	0.661946	-0.534582	0.935217	-0.51833	0.0385808	-0.134364	0.628273	-0.370337	0	0	-0.107247	-0.0595405	-0.171529	0.290091	-0.348982	0	0	-0.369327	0.112868	0.229843	-0.124805	-0.896672	0.0518552	1.5886	0.340125	0	0	0.633104	-0.457416	0.772871	1.03738	0.668177	0	0
2.33	-0.119905	1.17055	-1.39648	0.663517	-0.544528	0.936904	-0.499356	0.0238928	-0.135368	0.680852	-0.425764	0	0	-0.121753	-0.0555852	-0.176185	0.300615	-0.34114	0	0	-0.378274	0.108058	0.233046	-0.129916	-0.897639	0.0484106	1.58854	0.344036	0	0	0.638435	-0.453876	0.781047	1.03187	0.661395	0	0
2.34	-0.108359	1.16624	-1.40925	0.665033	-0.554279	0.938379	-0.475826	0.00885121	-0.134752	0.734419	-0.488296	0	0	-0.136449	-0.0507433	-0.183745	0.307981	-0.332799	0	0	-0.385599	0.102788	0.235178	-0.130379	-0.900606	0.0499638	1.58813	0.354021	0	0	0.641268	-0.451619	0.785129	1.02814	0.655992	0	0
2.35	-0.0980453	1.16291	-1.42168	0.666546	-0.56388	0.939652	-0.448871	-0.00599111	-0.133211	0.789649	-0.545274	0	0	-0.152079	-0.0458307	-0.193933	0.312787	-0.322997	0	0	-0.39183	0.0980388	0.236875	-0.128814	-0.904342	0.053116	1.58871	0.364784	0	0	0.642946	-0.450357	0.787292	1.02574	0.650977	0	0
2.36	-0.0898114	1.15967	-1.43275	0.668027	-0.573273	0.940769	-0.420829	-0.0193056	-0.130139	0.844998	-0.586703	0	0	-0.169177	-0.041441	-0.204813	0.315042	-0.312801	0	0	-0.398333	0.0944824	0.238633	-0.126796	-0.909285	0.0559576	1.59145	0.37231	0	0	0.643672	-0.449912	0.787641	1.0254	0.645055	0	0
2.37	-0.0841016	1.15517	-1.44178	0.669362	-0.582338	0.941898	-0.393766	-0.0303703	-0.125707	0.897709	-0.626912	0	0	-0.188377	-0.0382005	-0.21423	0.31447	-0.301835	0	0	-0.409661	0.0961244	0.238229	-0.0749045	-0.831255	0.0261887	1.55548	0.384668	0	0	0.639385	-0.452827	0.779109	1.02984	0.638628	0	0
2.38	-0.0819191	1.15428	-1.447	0.670486	-0.591369	0.942974	-0.36245	-0.0385779	-0.121242	0.948261	-0.655591	0	0	-0.203343	-0.036325	-0.219436	0.311572	-0.294809	0	0	-0.411278	0.090259	0.241142	-0.120774	-0.91458	0.0566109	1.59589	0.400731	0	0	0.643922	-0.451461	0.784947	1.02741	0.632516	0	0
